<?xml version="1.0" encoding="UTF-8" standalone="no"?>
<svg
   width="1620"
   height="2160"
   viewBox="-810 0 1620 2160"
   version="1.2"
   id="svg53"
   sodipodi:docname="Asteroid_Whole.svg"
   inkscape:version="1.4.3 (0d15f75, 2025-12-25)"
   inkscape:export-filename="Asteroid_Whole.png"
   inkscape:export-xdpi="96"
   inkscape:export-ydpi="96"
   xmlns:inkscape="http://www.inkscape.org/namespaces/inkscape"
   xmlns:sodipodi="http://sodipodi.sourceforge.net/DTD/sodipodi-0.dtd"
   xmlns="http://www.w3.org/2000/svg"
   xmlns:svg="http://www.w3.org/2000/svg"><defs
   id="defs53" />
<sodipodi:namedview
   id="namedview53"
   pagecolor="#505050"
   bordercolor="#ffffff"
   borderopacity="1"
   inkscape:showpageshadow="0"
   inkscape:pageopacity="0"
   inkscape:pagecheckerboard="1"
   inkscape:deskcolor="#505050"
   inkscape:zoom="0.54027778"
   inkscape:cx="809.76863"
   inkscape:cy="1080"
   inkscape:window-width="2560"
   inkscape:window-height="1369"
   inkscape:window-x="-8"
   inkscape:window-y="-8"
   inkscape:window-maximized="1"
   inkscape:current-layer="g107" />
<title
   id="title1">VectorExplosion</title>


\n<g
   inkscape:groupmode="layer"
   id="layer7"
   inkscape:label="Whole_Asteroid"
   style="display:none">
  <g
     id="g1">
    <path
       fill="none"
       stroke="#000000"
       stroke-width="6"
       stroke-linecap="round"
       stroke-linejoin="round"
       d="m -403.697,953.869 0.602,6.568 0.79,2.512 0.274,3.668 1.599,4.105 0.729,12.778 0.64,2.514 1.986,3.13 3.154,9.862 3.762,6.634 1.582,3.54 1.582,8.35 0.857,8.04 1.416,4.01 0.236,5.16 0.928,6.71 1.08,3.41 0.917,1.86 0.649,2.54 0.964,6.44 2.009,8.66 3.301,9.45 0.738,2.98 0.35,2.74 0.507,1.67"
       id="path1" />
  </g>
  <g
     id="g2">
    <path
       fill="none"
       stroke="#000000"
       stroke-width="6"
       stroke-linecap="round"
       stroke-linejoin="round"
       d="m -4.30238,1439 3.687527,0.86 9.288753,2.99 7.2701,0.75 6.9435,1.42 7.8025,0.65 5.6501,2.05 4.3816,0.6 2.7493,3.31 3.15,2.53 7.4369,1.74 5.6414,0.42 5.206,1.41 2.4173,1.07 1.5669,1.2 8.4029,3.83 3.3129,0.27 4.1822,1.77 5.8597,-0.15 3.2677,0.84 3.1563,1.31 3.2078,0.6 4.596,0.09 3.186,0.75 4.734,1.64 3.045,-0.07 3.124,0.53 3.728,0.06 8.566,1.5 9.589,0.13 2.461,0.36 4.155,1.72 3.312,2 5.911,2.8 3.506,1.51 1.81,0.34 11.193,-0.19 3.661,0.53 6.009,1.52 3.962,-0.04 2.279,-1.18 3.839,-1.35 5.463,-0.07 4.19,-0.54 4.49,-1.35 7.612,-0.25 2.198,-0.5 4.763,-0.26 3.65,-1.93 6.415,0.29 -0.546,-0.03 1.078,-2.75 -0.914,-2.23 -1.343,-2.04 -1.098,-3.99 -1.844,-3.43 0.913,-2.47 0.052,-0.37"
       id="path2" />
  </g>
  <g
     id="g3">
    <path
       fill="none"
       stroke="#000000"
       stroke-width="6"
       stroke-linecap="round"
       stroke-linejoin="round"
       d="m 152.079,467.414 -0.234,-0.75 3.222,4.629 2.664,5.898 1.111,4.798 3.416,6.499 1.48,3.573 0.049,4.024 0.318,1.781 1.813,2.217 1.586,3.592 0.158,2.224 0.265,0.58"
       id="path3" />
  </g>
  <g
     id="g4">
    <path
       fill="none"
       stroke="#000000"
       stroke-width="6"
       stroke-linecap="round"
       stroke-linejoin="round"
       d="m 308.518,1464.69 0.054,-0.24 -8.464,-4.41 -2.185,-2.31 -3.794,-2.12 -8.162,-2.51 -3.342,-0.56 -4.555,0.07 -5.038,-0.74 -6.719,0.11"
       id="path4" />
  </g>
  <g
     id="g5">
    <path
       fill="none"
       stroke="#000000"
       stroke-width="6"
       stroke-linecap="round"
       stroke-linejoin="round"
       d="m 214.694,1453.26 -2.238,0.21 -7.801,1.98 -3.534,0.25 -2.904,0.9 -4.975,2.42 -2.527,0.37 -5.879,3.01 -3.832,0.97 -4.055,2.15 -4.833,3.78 -1.09,-2.13 -1.298,-0.46 -2.317,0.14 -2.012,0.73 -3.599,2.26 -4.981,0.99 -3.73,1.56 -2.106,0.11 -2.184,1.33 -2.535,2.18 -4.994,1.6 -9.253,0.56 -3.494,-0.66 -6.862,-1.99 -5.561,0.2 -3.739,-1.38 -4.718,0.06 -4.518,-0.8 -15.4644,0.05 -12.7877,-4.51 -4.2065,-0.8 -4.1288,-1.32 -11.8431,-2.82 -10.2755,-3.94 -5.1098,-2.55 -9.7667,-3.49 -15.3662,-4.43 -3.4437,-0.73 -5.48027,-2.13 -5.151057,-1.21 -1.466793,-0.66"
       id="path5" />
  </g>
  <g
     id="g6">
    <path
       fill="none"
       stroke="#000000"
       stroke-width="6"
       stroke-linecap="round"
       stroke-linejoin="round"
       d="m -366.276,1087.26 -0.346,-2.45 -0.352,-4.77 -0.956,-5.14 -2.755,-6.67 -2.638,-7.49 -2.093,-8.55 -1.49,-3.84 -1.891,-3.09 -1.646,-4.64 -2.627,-15.47 -0.429,-6.36 -3.125,-7.95 -2.979,-12.798 -4.48,-13.363 -2.645,-9.258 -3.422,-18.282 -0.883,-2.848"
       id="path6" />
  </g>
  <g
     id="g7">
    <path
       fill="none"
       stroke="#000000"
       stroke-width="6"
       stroke-linecap="round"
       stroke-linejoin="round"
       d="m -22.2595,468.913 2.1546,-1.418 5.2248,-2.475 5.76708,-2.016 2.58771,-1.57 3.08905,-1.298 4.58465,-1.364 4.86017,0.379 7.38034,-0.499 28.0988,-0.047"
       id="path7" />
  </g>
  <g
     id="g8">
    <path
       fill="none"
       stroke="#000000"
       stroke-width="6"
       stroke-linecap="round"
       stroke-linejoin="round"
       d="m 274.755,1446.4 4.129,0.7 5.12,0.46 1.716,1.56 1.404,2.25 1.865,1.21 1.372,0.52 2.741,-0.16 0.783,0.28 6.134,3.09 8.47,3.53 4.854,-0.19 4.061,-0.66 3.489,0.15 5.739,1.11 3.615,1.42 6.008,0.12 3.681,1.41 1.817,0.1 3.452,-0.45 12.004,-3.59 10.792,-0.78 6.83,-2.81 4.803,-0.76 4.275,-1.46 7.313,-1.1 6.45,-0.34 6.956,-1.9 7.239,-0.2 3.699,-2.05 4.05,-1.73 9.855,0.03 6.188,-0.43 6.518,-2.27 3.291,-1.82 2.611,-0.9 11.279,-5.16 8.886,-5.05 9.66,-6.33 2.073,-1.8 2.715,-3.33 4.994,-3.87 2.904,-1.11 5.815,-3.91 6.995,-5.4 3.506,-3.1 3.705,-2.15 5.791,-4.38 3.536,-3.64 2.741,-3.63 0.724,-2.01 2.735,-4.84 7.128,-7.59 2.658,-3.39 3.014,-3.2 9.286,-12.88 5.904,-6.98 2.846,-4.48 1.639,-4.43 4.978,-7.41 3.189,-6.53 4.396,-6.04 3.917,-6.38 5.373,-5.83 3.399,-2.53 6.081,-3.16 3.278,-2.82 4.389,-4.82 3.397,-9.39 2.369,-4.88 3.184,-5.14 4.839,-5.58 7.091,-10.18 3.342,-6.04 6.775,-9.25 2.808,-5.53 1.895,-5.22 0.732,-3.15 3.218,-8.7 3.842,-13.69 5.091,-11.98 3.904,-11.4 1.444,-5.09 2.526,-11.81 5.71,-13.31 1.777,-5.43 2.523,-11.57 1.579,-4.59 3.267,-13.43 0.503,-5.26 2.46,-15.18 4.495,-17.02 -0.568,-20.74 0.052,-4.99 0.377,-3.44 -0.062,-10.33 0.529,-5.96 -0.379,-23.84 -2.131,-8.9 -0.9,-7.946 -2.275,-6.794 -0.883,-4.343 -5.822,-12.183 -3.299,-4.42 -2.123,-4.399 -1.168,-2.588 -1.898,-6.995 -1.122,-2.472 -2.906,-4.712 -1.41,-1.754"
       id="path8" />
  </g>
  <g
     id="g20">
    <path
       fill="none"
       stroke="#000000"
       stroke-width="6"
       stroke-linecap="round"
       stroke-linejoin="round"
       d="m -281.983,683.487 -2.178,-2.505 -3.28,-6.107 -3.929,-5.652 -1.711,-3.028 -2.51,-5.595 -2.102,-3.078 -1.607,-4.308 -0.575,-2.461"
       id="path20" />
  </g>
  <g
     id="g21">
    <path
       fill="none"
       stroke="#000000"
       stroke-width="6"
       stroke-linecap="round"
       stroke-linejoin="round"
       d="m -285.769,662.212 0.228,0.288 -0.265,1.397 -2.766,6.802 0.334,-0.273 0.819,0.91 1.808,3.039 -0.246,6.99 0.638,2.916 3.383,4.688 4.222,4.292 3.597,4.768 3.562,6.885"
       id="path21" />
  </g>
  <g
     id="g22">
    <path
       fill="none"
       stroke="#000000"
       stroke-width="6"
       stroke-linecap="round"
       stroke-linejoin="round"
       d="m -303.14,660.259 -1.156,3.266 -6.302,12.597 -10.527,15.26 -5.201,9.332 -5.312,11.326 -7.33,18.036 -3.381,7.196 -1.839,2.885 -2.343,2.325 -2.943,1.577 -3.054,0.866"
       id="path22" />
  </g>
  <g
     id="g23">
    <path
       fill="none"
       stroke="#000000"
       stroke-width="6"
       stroke-linecap="round"
       stroke-linejoin="round"
       d="m 364.708,1071.06 -0.073,-0.1"
       id="path23" />
  </g>
  <g
     id="g24">
    <path
       fill="none"
       stroke="#000000"
       stroke-width="6"
       stroke-linecap="round"
       stroke-linejoin="round"
       d="m 303.014,1032.21 3.647,1.04 8.211,2 11.475,4.31 5.023,2.38 3.218,1.95 3.11,2.47 14.61,13.86 4.851,3.6 6.581,3.99 6.242,2.93 12.072,4.65 10.205,3.05 11.104,2.75 2.093,0.93"
       id="path24" />
  </g>
  <g
     id="g25">
    <path
       fill="none"
       stroke="#000000"
       stroke-width="6"
       stroke-linecap="round"
       stroke-linejoin="round"
       d="m 574.993,998.856 3.252,-2.087 8.213,-5.95 4.396,-3.588 11.691,-12.104 5.804,-4.429 8.385,-7.135 9.896,-9.201 3.803,-4.588 4.327,-6.407 3.276,-3.526 0.037,-0.048"
       id="path25" />
  </g>
  <g
     id="g26">
    <path
       fill="none"
       stroke="#000000"
       stroke-width="6"
       stroke-linecap="round"
       stroke-linejoin="round"
       d="m 464.964,1272.25 -0.08,4.27 0.95,2.32 0.688,-0.57 0.924,-2.54 -0.063,-0.61 -0.571,0.42 -0.833,1.42 -0.106,1.28 0.35,0.09 3.841,-1.9 -1.016,-0.87"
       id="path26" />
  </g>
  <g
     id="g27">
    <path
       fill="none"
       stroke="#000000"
       stroke-width="6"
       stroke-linecap="round"
       stroke-linejoin="round"
       d="m 475.048,1345.86 0.206,-4.11 -0.428,-1.08 -1.162,0.42 -1.8,1.82 -0.821,1.44 -0.252,2.45 1.39,-0.64 1.405,-1.39 1.362,-1.88 0.082,-0.33 -0.431,-0.05 -2.169,2.39 -1.002,1.9 -0.063,0.97 0.348,0.58 0.544,0.1 2.084,-1.29 0.53,-0.97 0.481,-2.03 -0.907,-6.22 -2.544,9.11 0.348,1.75 0.503,0.26"
       id="path27" />
  </g>
  <g
     id="g28">
    <path
       fill="none"
       stroke="#000000"
       stroke-width="6"
       stroke-linecap="round"
       stroke-linejoin="round"
       d="m 464.114,1274.72 2.407,3.24 1.648,5.35 0.581,3.89 0.66,11.61 1.993,12.49 1.661,13.85 4.231,16 0.841,6.46 0.052,3.26 -0.187,5.48 -0.818,4.33 -0.074,2.21 0.15,-3.81"
       id="path28" />
  </g>
  <g
     id="g29">
    <path
       fill="none"
       stroke="#000000"
       stroke-width="6"
       stroke-linecap="round"
       stroke-linejoin="round"
       d="m 466.246,1343.98 3.956,2.32 5.854,6.19 3.481,4.96 4.49,7.98 6.256,9.81 7.156,6.41 4.383,2.96 1.111,0.07"
       id="path29" />
  </g>
  <g
     id="g30">
    <path
       fill="none"
       stroke="#000000"
       stroke-width="6"
       stroke-linecap="round"
       stroke-linejoin="round"
       d="m 485.979,1373.47 3.593,3.58 2.81,1.12 0.655,3.02 2.56,2.74 9.874,6.71 1.918,2 0.891,1.98 4.047,4.41 3.852,4.86 0.6,0.31 0.211,-0.48"
       id="path30" />
  </g>
  <g
     id="g31">
    <path
       fill="none"
       stroke="#000000"
       stroke-width="6"
       stroke-linecap="round"
       stroke-linejoin="round"
       d="m 478.611,1358.22 2.432,4.79 5.741,9.28 7.444,6.49 15.375,12.43"
       id="path31" />
  </g>
  <g
     id="g32">
    <path
       fill="none"
       stroke="#000000"
       stroke-width="6"
       stroke-linecap="round"
       stroke-linejoin="round"
       d="m 474.756,1267.39 -2.719,4.42 -2.521,6.11 0.328,-0.88 -0.052,-1.31 -1.288,-1.98 -8.351,-8.16 -3.923,-3.3 -6.719,-6.99 -4.058,-3.46 -3.346,-2.18 -3.444,-1.61"
       id="path32" />
  </g>
  <g
     id="g33">
    <path
       fill="none"
       stroke="#000000"
       stroke-width="6"
       stroke-linecap="round"
       stroke-linejoin="round"
       d="m 282.792,1363.24 -1.175,0.75 -2.787,2.93 1.127,0.32 2.231,-0.62 0.316,-1.07 -0.224,-1.26 -0.125,0.52 -1.221,0.96 0.111,0.47"
       id="path33" />
  </g>
  <g
     id="g34">
    <path
       fill="none"
       stroke="#000000"
       stroke-width="6"
       stroke-linecap="round"
       stroke-linejoin="round"
       d="m 284.209,1361.81 -2.116,0.86 2.171,-1.4"
       id="path34" />
  </g>
  <g
     id="g35">
    <path
       fill="none"
       stroke="#000000"
       stroke-width="6"
       stroke-linecap="round"
       stroke-linejoin="round"
       d="m 271.025,1372.37 0.075,0.23 2.36,-2.15 1.002,-1.49 -2.279,1.93 0.964,0.31 2.032,-0.02"
       id="path35" />
  </g>
  <g
     id="g36">
    <path
       fill="none"
       stroke="#000000"
       stroke-width="6"
       stroke-linecap="round"
       stroke-linejoin="round"
       d="m 277.765,1371.06 h 0.006"
       id="path36" />
  </g>
  <g
     id="g37">
    <path
       fill="none"
       stroke="#000000"
       stroke-width="6"
       stroke-linecap="round"
       stroke-linejoin="round"
       d="m 278.258,1368.85 0.983,4.91 0.149,4.27 -0.934,11.75 -0.858,29.12 -0.558,4.97 -1.132,4.66 -0.775,5.2 -2.679,9.07 -1.715,4.66 0.13,0.39 1.174,-2.23 2.811,-6.96 2.614,-9.45"
       id="path37" />
  </g>
  <g
     id="g38">
    <path
       fill="none"
       stroke="#000000"
       stroke-width="6"
       stroke-linecap="round"
       stroke-linejoin="round"
       d="m 210.889,1472.58 0.05,0.5 1.089,0.42 4.769,0.46 6.399,-0.36 3.648,-0.83 22.625,-8.54 23.96,-7.38 10.111,-3.5 9.612,-3.9 4.418,-2.27 6.137,-4.17 7.143,-5.85 3.557,-2.46"
       id="path38" />
  </g>
  <g
     id="g39">
    <path
       fill="none"
       stroke="#000000"
       stroke-width="6"
       stroke-linecap="round"
       stroke-linejoin="round"
       d="m -368.833,1080 0.178,1.16 1.479,2.22 6.837,8.22 5.752,6.2 5.248,7.36 3.545,5.93 0.561,1.12"
       id="path39" />
  </g>
  <g
     id="g40">
    <path
       fill="none"
       stroke="#000000"
       stroke-width="6"
       stroke-linecap="round"
       stroke-linejoin="round"
       d="m -316.664,1156.37 12.416,14.77 7.607,7.96 3.029,1.9 0.847,0.01 0.35,-0.36 -0.821,-2.26 -3.328,-6.7"
       id="path40" />
  </g>
  <g
     id="g41">
    <path
       fill="none"
       stroke="#000000"
       stroke-width="6"
       stroke-linecap="round"
       stroke-linejoin="round"
       d="m -374.67,1075.13 9.581,4.67 1.36,2.17 8.697,10.33 2.213,2.02 6.487,4.21 2.495,2.41 1.208,2.19 2.71,7.77 3.349,8.24 5.267,9.89 2.816,4.05 3.678,4.49 6.998,6.59 7.131,7.39 1.419,2.07 1.945,4.5 2.05,1.35 5.159,5.63 1.925,3.08 1.344,3.17 2.239,2.26 2.705,2.12 5.434,5.6 1.236,3.04 0.882,1.14 5.467,5.04 1.463,0.88 1.392,1.68 1.396,0.66 1.612,1.34 6.14,6.21 0.983,1.35 1.813,3.99 0.746,1.01 3.431,2.08 2.743,2.26 0.978,1.65 2.49,2.98 1.588,1 1.865,1.99 3.206,2.56 5.231,3.38 4.864,2.41 h 0.804 l 1.631,0.82 6.584,5.37 2.707,3.03 2.495,1.18 2.69,2.62 3.857,2.87 3.57,1.73 3.108,2.58 8.615,5.91 3.307,1.56 3.386,3.81 -0.827,-3.26 -1.841,-3.4 -3.608,-4.27 -5.241,-4.12"
       id="path41" />
  </g>
  <g
     id="g42">
    <path
       fill="none"
       stroke="#000000"
       stroke-width="6"
       stroke-linecap="round"
       stroke-linejoin="round"
       d="m -229.291,1234.66 5.578,9.07 3.422,4.5 1.201,0.99 0.977,0.5 6.124,1.16 11.945,5.56 7.085,4.2 1.631,1.43 1.174,1.99 1.076,0.53 1.085,0.18 2.572,-0.28 1.565,-0.72 0.439,-0.52"
       id="path42" />
  </g>
  <g
     id="g43">
    <path
       fill="none"
       stroke="#000000"
       stroke-width="6"
       stroke-linecap="round"
       stroke-linejoin="round"
       d="m -202.302,1244.76 5.4,3.23 1.175,1.32 1.594,2.78 2.055,5.93 5.288,3.32 1.686,-1.81 1.236,-0.01 0.905,0.76 1.071,2.3"
       id="path43" />
  </g>
  <g
     id="g44">
    <path
       fill="none"
       stroke="#000000"
       stroke-width="6"
       stroke-linecap="round"
       stroke-linejoin="round"
       d="m -176.942,1261.94 -0.261,1.31 -2.665,-3.68 -0.729,-1.97 -0.288,-2.24"
       id="path44" />
  </g>
  <g
     id="g45">
    <path
       fill="none"
       stroke="#000000"
       stroke-width="6"
       stroke-linecap="round"
       stroke-linejoin="round"
       d="m -179.352,1258.59 -0.011,1.76 0.311,0.06 0.042,-0.05"
       id="path45" />
  </g>
  <g
     id="g46">
    <path
       fill="none"
       stroke="#000000"
       stroke-width="6"
       stroke-linecap="round"
       stroke-linejoin="round"
       d="m -164.675,1222.66 3.21,-8.28 0.275,-0.08 0.109,0.36 1.145,0.62 0.094,1.68 -2.603,7.84 -1.336,3.03 -3.688,11.88 -1.644,11.46 -2.268,9.59 0.28,2.49 -1.085,6.67 0.191,2.66 -0.932,2.1 0.125,2.2 -0.658,-0.78 -0.902,-2.08"
       id="path46" />
  </g>
  <g
     id="g47">
    <path
       fill="none"
       stroke="#000000"
       stroke-width="6"
       stroke-linecap="round"
       stroke-linejoin="round"
       d="m -176.707,1263.77 0.189,1.86 1.713,6.27 0.223,3.11 -0.185,1.08 -0.836,1.4 -0.903,3.42 -0.755,6.92 -0.047,10.37 0.532,3.17 -0.183,-0.99 -1.546,-3.14 5.453,-1.02 0.851,-0.71 -0.355,-0.9 -2.473,-2.92 -1.359,-3.05"
       id="path47" />
  </g>
  <g
     id="g48">
    <path
       fill="none"
       stroke="#000000"
       stroke-width="6"
       stroke-linecap="round"
       stroke-linejoin="round"
       d="m -177.382,1303.07 -0.28,0.12 0.599,0.5 2.975,1.67 2.523,1.98 1.979,0.72 -1.937,-1.11"
       id="path48" />
  </g>
  <g
     id="g49">
    <path
       fill="none"
       stroke="#000000"
       stroke-width="6"
       stroke-linecap="round"
       stroke-linejoin="round"
       d="m -177.272,1277.35 0.135,6.79 0.465,3.41 2.879,8.67 0.538,1.22 3.973,4.99 0.837,1.55 4.102,3.8 2.017,1.29 0.67,0.12 1.338,4.3 0.087,6.03 0.798,3.53 h 0.324 l 0.533,-0.97 1.254,-2.96 0.899,-4.62 -0.065,-2.68 -1.225,-3.49"
       id="path49" />
  </g>
  <g
     id="g50">
    <path
       fill="none"
       stroke="#000000"
       stroke-width="6"
       stroke-linecap="round"
       stroke-linejoin="round"
       d="m -170.388,1305.23 137.9998,78"
       id="path50" />
  </g>
  <g
     id="g51">
    <path
       fill="none"
       stroke="#000000"
       stroke-width="6"
       stroke-linecap="round"
       stroke-linejoin="round"
       d="m -160.741,1304.51 9.774,2.99 9.578,6.82 8.088,3.81 5.246,2.94 10.059,7.25 3.313,1.75 3.938,1.04 3.798,1.79 5.109,1.88 3.798,1.87 9.1677,5.48 4.3447,1.26 3.4784,2.07 8.125,5.9 3.3952,3.35 7.4909,8.93 1.234,1.03 1.3047,0.34 4.2423,2.15 3.851,3.06 3.9369,2.04 1.6204,1.56 0.876,1.57 2.5663,3.05 4.5728,3.93 4.8758,8.52 1.5731,1.43 2.427,4.48 5.3079,5.18 0.721,1.67 1.527,2.11 3.1547,2.88 2.8429,1.94 1.4546,2.02 -0.2521,0.7 0.2467,0.75 3.9314,3.96 1.99491,2.65 3.67968,8.89 1.26032,1.86"
       id="path51" />
  </g>
  <g
     id="g52">
    <path
       fill="none"
       stroke="#000000"
       stroke-width="6"
       stroke-linecap="round"
       stroke-linejoin="round"
       d="m -15.4275,1422.18 2.6793,2.48 2.80931,2.11 2.21027,2.92 5.35852,3.99 6.33197,6.24 5.21069,2.64 6.41104,2.39 5.9735,0.39 6.2574,2.74 2.897,2.12 4.2115,1.63 6.8553,3.39 12.5001,7.16 1.8484,1.58 0.1374,1.1"
       id="path52" />
  </g>
  <g
     id="g53">
    <path
       fill="none"
       stroke="#000000"
       stroke-width="6"
       stroke-linecap="round"
       stroke-linejoin="round"
       d="m 646.457,945.089 -0.37,0.036 -1.651,-4.412 -0.02,-1.558 -0.772,-2.944 -1.951,-3.765 -0.707,-4.882 -1.895,-2.368 -0.393,-1.21 0.185,-9.157 -1.544,-3.146 -0.459,-2.711 0.106,-4.859 0.585,-3.652 -0.851,-5.614 0.173,-6.248 2.22,-9.362 0.73,-1.414 0.203,-1.225"
       id="path53" />
  </g>
  <g
     id="g9">
    <path
       fill="none"
       stroke="#000000"
       stroke-width="6"
       stroke-linecap="round"
       stroke-linejoin="round"
       d="m 639.022,873.335 -0.361,-2.15 -1.805,-4.852 -0.647,-4.56 -3.603,-9.224 -1.23,-13.677 -2.07,-8.379 -1.972,-3.621 -3.078,-3.914 -2.122,-4.019 -1.867,-7.24 -2.373,-6.266 -5.138,-8.148 -2.46,-5.426 -6.299,-9.238 -4.109,-9.851 -1.597,-4.873 -3.912,-7.268 -1.437,-1.694 -4.947,-3.843 -2.033,-2.225 -3.679,-5.01 -8.111,-7.737 -7.544,-10.699 -3.765,-6.548 -4.497,-5.05 -3.861,-4.957 -7.239,-7.253 -3.904,-2.691 -4.246,-4.364 -4.07,-5.143 -5.574,-5.71 -2.804,-3.85 -13.54,-8.338 -22.015,-15.891 -5.312,-4.246 -3.952,-2.531 -3.483,-1.785 -2.892,-1.135 -10.09,-2.715 -10.011,-3.614 -2.207,-0.558 -10.122,-1.135 -19.641,-5.471 -3.192,-1.631 -4.404,-3.111 -4.231,-4.051 -21.564,-12.139 -7.282,-6.454 -9.862,-7.799 -5.668,-6.39 -7.075,-6.852 -6.651,-7.714 -13.268,-10.403 -6.678,-7.169 -3.009,-3.807 -4.322,-3.788 -7.265,-4.088 -9.428,-8.606 -3.088,-1.87 -10.894,-3.888 -6.404,-3.732 -5.849,-1.949 -9.84,-4.105 -7.186,-5.693 -3.947,-2.47 -6.494,-1.881 -3.563,-1.5 -9.445,-4.925 -8.719,-5.332 -4.45,-2.092 -12.96,-3.361 -4.471,-1.673 -4.653,-2.249 -11.304,-6.436 -5.417,-2.311 -3.04,-0.793 -3.527,-1.382 -11.868,-6.258 -9.294,-4.045 -6.319,-1.46 -6.846,-2.235 -10.321,-5.342 -4.645,-1.394 -8.54,-1.301 -14.737,-3.332 -24.763,-4.363 -4.169,-0.152 -12.9037,1.274 -22.3343,-0.969 -4.2908,0.544 -14.0296,3.164 -4.562,0.735 -26.60226,1.054 -9.58074,1.158 -12.0777,2.566"
       id="path9" />
  </g>
  <g
     id="g10">
    <path
       fill="none"
       stroke="#000000"
       stroke-width="6"
       stroke-linecap="round"
       stroke-linejoin="round"
       d="m -28.7072,464.555 -4.9952,6.038 1.5025,-2.334"
       id="path10" />
  </g>
  <g
     id="g11">
    <path
       fill="none"
       stroke="#000000"
       stroke-width="6"
       stroke-linecap="round"
       stroke-linejoin="round"
       d="m -405.123,929.286 0.011,-0.057"
       id="path11" />
  </g>
  <g
     id="g12">
    <path
       fill="none"
       stroke="#000000"
       stroke-width="6"
       stroke-linecap="round"
       stroke-linejoin="round"
       d="m -32.2598,467.529 -3.1692,0.2 -2.782,0.793 -2.5616,1.7 -2.8866,2.578 -2.3484,1.465 -3.8399,1.634 -9.4594,3.088 -3.6562,1.605 -4.8618,2.694 -12.7586,9.128 -7.5943,4.12 -6.9216,3.259 -14.7096,5.383 -2.685,1.47 -3.062,2.915 -7.294,4.507 -19.184,7.199 -6.123,3.564 -27.306,17.779 -7.058,5.716 -15.157,13.697 -7.568,5.472 -10.636,9.016 -6.254,5.965 -3.975,4.294 -4.031,3.536 -16.714,12.19 -3.027,2.612 -5.511,6.665 -2.407,3.588 -4.303,7.685 -3.358,4.977 -2.298,2.825 -4.463,3.996 -10.275,6.66 -2.238,1.951 -3.216,3.435 -3.652,4.97 -4.169,6.493 -4.951,8.977 -6.046,9.644 -1.096,1.909"
       id="path12" />
  </g>
  <g
     id="g13">
    <path
       fill="none"
       stroke="#000000"
       stroke-width="6"
       stroke-linecap="round"
       stroke-linejoin="round"
       d="m -328.004,712.068 -2.466,3.628 -2.642,5.237 -4.605,11.011 -5.839,10.733 -18.094,29.14 -6.034,10.665 -3.965,9.692 -3.821,16.449 -6.338,17.371 -4.308,13.251 -1.957,7.94 -2.095,12.045 -1.335,19.069 -0.673,15.626 -2.101,14.289 -2.164,23.674 -0.96,1.91 -1.161,10.358 -0.008,16.147 0.254,5.285 0.546,3.765 -0.258,1.399 1.43,2.469 1.421,6.716 1.455,15.968"
       id="path13" />
  </g>
  <g
     id="g14">
    <path
       fill="none"
       stroke="#000000"
       stroke-width="6"
       stroke-linecap="round"
       stroke-linejoin="round"
       d="m 149.887,467.304 0.178,0.417 6.217,-1.17 0.445,0.574 -0.226,1.046 -2.214,3.686 -0.058,2.429 1.034,1.219 2.118,1.388 0.577,0.918 0.857,2.886 0.579,4.02 1.103,2.54 0.236,5.735 0.489,2.589 0.56,1.196 1.91,1.734 1.647,3.546 -0.075,5.21 0.358,2.035 2.849,5.167 1.749,3.895 0.361,3.556 1.117,2.598 1.332,2.219 2.555,2.517 2.044,4.999 0.56,2.714 0.389,0.851"
       id="path14" />
  </g>
  <g
     id="g15">
    <path
       fill="none"
       stroke="#000000"
       stroke-width="6"
       stroke-linecap="round"
       stroke-linejoin="round"
       d="m 148.18,741.887 0.269,7.641 0.603,2.799 1.709,2.867 -0.6,0.598"
       id="path15" />
  </g>
  <g
     id="g16">
    <path
       fill="none"
       stroke="#000000"
       stroke-width="6"
       stroke-linecap="round"
       stroke-linejoin="round"
       d="m 151.091,763.11 -0.081,-0.091"
       id="path16" />
  </g>
  <g
     id="g17">
    <path
       fill="none"
       stroke="#000000"
       stroke-width="6"
       stroke-linecap="round"
       stroke-linejoin="round"
       d="m 151.473,758.711 -2.078,8.811 -1.653,1.648 -4.188,2.498 -5.956,5.296 -4.082,1.74 -9.466,2.617 -6.156,2.581 -3.654,2.188 -6.967,5.448 -4.475,2.959 -8.2796,3.949 -8.282,3.341 -4.8068,2.419 -5.8183,4.514 -0.6919,0.694"
       id="path17" />
  </g>
  <g
     id="g18">
    <path
       fill="none"
       stroke="#000000"
       stroke-width="6"
       stroke-linecap="round"
       stroke-linejoin="round"
       d="m -293.764,655.567 0.026,10e-4"
       id="path18" />
  </g>
  <g
     id="g19">
    <path
       fill="none"
       stroke="#000000"
       stroke-width="6"
       stroke-linecap="round"
       stroke-linejoin="round"
       d="m -292.189,650.507 1.749,6.729 -0.165,1.009 -0.736,0.905 -0.212,0.877 0.448,9.181 1.353,4.774 0.268,3.882"
       id="path19" />
  </g>
</g>
<g
   inkscape:groupmode="layer"
   id="g107"
   inkscape:label="Whole_Asteroid_White"
   style="stroke:#ffffff;stroke-opacity:1">
  <g
     id="g54"
     style="fill:none;stroke:#ffffff;stroke-opacity:1">
    <path
       fill="none"
       stroke="#000000"
       stroke-width="6"
       stroke-linecap="round"
       stroke-linejoin="round"
       d="M-403.697 953.869 L-403.095 960.437 L-402.305 962.949 L-402.031 966.617 L-400.432 970.722 L-399.703 983.5 L-399.063 986.014 L-397.077 989.144 L-393.923 999.006 L-390.161 1005.64 L-388.579 1009.18 L-386.997 1017.53 L-386.14 1025.57 L-384.724 1029.58 L-384.488 1034.74 L-383.56 1041.45 L-382.48 1044.86 L-381.563 1046.72 L-380.914 1049.26 L-379.95 1055.7 L-377.941 1064.36 L-374.64 1073.81 L-373.902 1076.79 L-373.552 1079.53 L-373.045 1081.2 "
       id="path54"
       style="fill:none;stroke:#ffffff;stroke-opacity:1" />
  </g>
  <g
     id="g55"
     style="fill:none;stroke:#ffffff;stroke-opacity:1">
    <path
       fill="none"
       stroke="#000000"
       stroke-width="6"
       stroke-linecap="round"
       stroke-linejoin="round"
       d="M-4.30238 1439 L-0.614853 1439.86 L8.6739 1442.85 L15.944 1443.6 L22.8875 1445.02 L30.69 1445.67 L36.3401 1447.72 L40.7217 1448.32 L43.471 1451.63 L46.621 1454.16 L54.0579 1455.9 L59.6993 1456.32 L64.9053 1457.73 L67.3226 1458.8 L68.8895 1460 L77.2924 1463.83 L80.6053 1464.1 L84.7875 1465.87 L90.6472 1465.72 L93.9149 1466.56 L97.0712 1467.87 L100.279 1468.47 L104.875 1468.56 L108.061 1469.31 L112.795 1470.95 L115.84 1470.88 L118.964 1471.41 L122.692 1471.47 L131.258 1472.97 L140.847 1473.1 L143.308 1473.46 L147.463 1475.18 L150.775 1477.18 L156.686 1479.98 L160.192 1481.49 L162.002 1481.83 L173.195 1481.64 L176.856 1482.17 L182.865 1483.69 L186.827 1483.65 L189.106 1482.47 L192.945 1481.12 L198.408 1481.05 L202.598 1480.51 L207.088 1479.16 L214.7 1478.91 L216.898 1478.41 L221.661 1478.15 L225.311 1476.22 L231.726 1476.51 L231.18 1476.48 L232.258 1473.73 L231.344 1471.5 L230.001 1469.46 L228.903 1465.47 L227.059 1462.04 L227.972 1459.57 L228.024 1459.2 "
       id="path55"
       style="fill:none;stroke:#ffffff;stroke-opacity:1" />
  </g>
  <g
     id="g56"
     style="fill:none;stroke:#ffffff;stroke-opacity:1">
    <path
       fill="none"
       stroke="#000000"
       stroke-width="6"
       stroke-linecap="round"
       stroke-linejoin="round"
       d="M152.079 467.414 L151.845 466.664 L155.067 471.293 L157.731 477.191 L158.842 481.989 L162.258 488.488 L163.738 492.061 L163.787 496.085 L164.105 497.866 L165.918 500.083 L167.504 503.675 L167.662 505.899 L167.927 506.479 "
       id="path56"
       style="fill:none;stroke:#ffffff;stroke-opacity:1" />
  </g>
  <g
     id="g57"
     style="fill:none;stroke:#ffffff;stroke-opacity:1">
    <path
       fill="none"
       stroke="#000000"
       stroke-width="6"
       stroke-linecap="round"
       stroke-linejoin="round"
       d="M308.518 1464.69 L308.572 1464.45 L300.108 1460.04 L297.923 1457.73 L294.129 1455.61 L285.967 1453.1 L282.625 1452.54 L278.07 1452.61 L273.032 1451.87 L266.313 1451.98 "
       id="path57"
       style="fill:none;stroke:#ffffff;stroke-opacity:1" />
  </g>
  <g
     id="g58"
     style="fill:none;stroke:#ffffff;stroke-opacity:1">
    <path
       fill="none"
       stroke="#000000"
       stroke-width="6"
       stroke-linecap="round"
       stroke-linejoin="round"
       d="M214.694 1453.26 L212.456 1453.47 L204.655 1455.45 L201.121 1455.7 L198.217 1456.6 L193.242 1459.02 L190.715 1459.39 L184.836 1462.4 L181.004 1463.37 L176.949 1465.52 L172.116 1469.3 L171.026 1467.17 L169.728 1466.71 L167.411 1466.85 L165.399 1467.58 L161.8 1469.84 L156.819 1470.83 L153.089 1472.39 L150.983 1472.5 L148.799 1473.83 L146.264 1476.01 L141.27 1477.61 L132.017 1478.17 L128.523 1477.51 L121.661 1475.52 L116.1 1475.72 L112.361 1474.34 L107.643 1474.4 L103.125 1473.6 L87.6606 1473.65 L74.8729 1469.14 L70.6664 1468.34 L66.5376 1467.02 L54.6945 1464.2 L44.419 1460.26 L39.3092 1457.71 L29.5425 1454.22 L14.1763 1449.79 L10.7326 1449.06 L5.25233 1446.93 L0.101273 1445.72 L-1.36552 1445.06 "
       id="path58"
       style="fill:none;stroke:#ffffff;stroke-opacity:1" />
  </g>
  <g
     id="g59"
     style="fill:none;stroke:#ffffff;stroke-opacity:1">
    <path
       fill="none"
       stroke="#000000"
       stroke-width="6"
       stroke-linecap="round"
       stroke-linejoin="round"
       d="M-366.276 1087.26 L-366.622 1084.81 L-366.974 1080.04 L-367.93 1074.9 L-370.685 1068.23 L-373.323 1060.74 L-375.416 1052.19 L-376.906 1048.35 L-378.797 1045.26 L-380.443 1040.62 L-383.07 1025.15 L-383.499 1018.79 L-386.624 1010.84 L-389.603 998.042 L-394.083 984.679 L-396.728 975.421 L-400.15 957.139 L-401.033 954.291 "
       id="path59"
       style="fill:none;stroke:#ffffff;stroke-opacity:1" />
  </g>
  <g
     id="g60"
     style="fill:none;stroke:#ffffff;stroke-opacity:1">
    <path
       fill="none"
       stroke="#000000"
       stroke-width="6"
       stroke-linecap="round"
       stroke-linejoin="round"
       d="M-22.2595 468.913 L-20.1049 467.495 L-14.8801 465.02 L-9.11302 463.004 L-6.52531 461.434 L-3.43626 460.136 L1.14839 458.772 L6.00856 459.151 L13.3889 458.652 L41.4877 458.605 "
       id="path60"
       style="fill:none;stroke:#ffffff;stroke-opacity:1" />
  </g>
  <g
     id="g61"
     style="fill:none;stroke:#ffffff;stroke-opacity:1">
    <path
       fill="none"
       stroke="#000000"
       stroke-width="6"
       stroke-linecap="round"
       stroke-linejoin="round"
       d="M274.755 1446.4 L278.884 1447.1 L284.004 1447.56 L285.72 1449.12 L287.124 1451.37 L288.989 1452.58 L290.361 1453.1 L293.102 1452.94 L293.885 1453.22 L300.019 1456.31 L308.489 1459.84 L313.343 1459.65 L317.404 1458.99 L320.893 1459.14 L326.632 1460.25 L330.247 1461.67 L336.255 1461.79 L339.936 1463.2 L341.753 1463.3 L345.205 1462.85 L357.209 1459.26 L368.001 1458.48 L374.831 1455.67 L379.634 1454.91 L383.909 1453.45 L391.222 1452.35 L397.672 1452.01 L404.628 1450.11 L411.867 1449.91 L415.566 1447.86 L419.616 1446.13 L429.471 1446.16 L435.659 1445.73 L442.177 1443.46 L445.468 1441.64 L448.079 1440.74 L459.358 1435.58 L468.244 1430.53 L477.904 1424.2 L479.977 1422.4 L482.692 1419.07 L487.686 1415.2 L490.59 1414.09 L496.405 1410.18 L503.4 1404.78 L506.906 1401.68 L510.611 1399.53 L516.402 1395.15 L519.938 1391.51 L522.679 1387.88 L523.403 1385.87 L526.138 1381.03 L533.266 1373.44 L535.924 1370.05 L538.938 1366.85 L548.224 1353.97 L554.128 1346.99 L556.974 1342.51 L558.613 1338.08 L563.591 1330.67 L566.78 1324.14 L571.176 1318.1 L575.093 1311.72 L580.466 1305.89 L583.865 1303.36 L589.946 1300.2 L593.224 1297.38 L597.613 1292.56 L601.01 1283.17 L603.379 1278.29 L606.563 1273.15 L611.402 1267.57 L618.493 1257.39 L621.835 1251.35 L628.61 1242.1 L631.418 1236.57 L633.313 1231.35 L634.045 1228.2 L637.263 1219.5 L641.105 1205.81 L646.196 1193.83 L650.1 1182.43 L651.544 1177.34 L654.07 1165.53 L659.78 1152.22 L661.557 1146.79 L664.08 1135.22 L665.659 1130.63 L668.926 1117.2 L669.429 1111.94 L671.889 1096.76 L676.384 1079.74 L675.816 1059 L675.868 1054.01 L676.245 1050.57 L676.183 1040.24 L676.712 1034.28 L676.333 1010.44 L674.202 1001.54 L673.302 993.594 L671.027 986.8 L670.144 982.457 L664.322 970.274 L661.023 965.854 L658.9 961.455 L657.732 958.867 L655.834 951.872 L654.712 949.4 L651.806 944.688 L650.396 942.934 "
       id="path61"
       style="fill:none;stroke:#ffffff;stroke-opacity:1" />
  </g>
  <g
     id="g62"
     style="fill:none;stroke:#ffffff;stroke-opacity:1">
    <path
       fill="none"
       stroke="#000000"
       stroke-width="6"
       stroke-linecap="round"
       stroke-linejoin="round"
       d="M-281.983 683.487 L-284.161 680.982 L-287.441 674.875 L-291.37 669.223 L-293.081 666.195 L-295.591 660.6 L-297.693 657.522 L-299.3 653.214 L-299.875 650.753 "
       id="path62"
       style="fill:none;stroke:#ffffff;stroke-opacity:1" />
  </g>
  <g
     id="g63"
     style="fill:none;stroke:#ffffff;stroke-opacity:1">
    <path
       fill="none"
       stroke="#000000"
       stroke-width="6"
       stroke-linecap="round"
       stroke-linejoin="round"
       d="M-285.769 662.212 L-285.541 662.5 L-285.806 663.897 L-288.572 670.699 L-288.238 670.426 L-287.419 671.336 L-285.611 674.375 L-285.857 681.365 L-285.219 684.281 L-281.836 688.969 L-277.614 693.261 L-274.017 698.029 L-270.455 704.914 "
       id="path63"
       style="fill:none;stroke:#ffffff;stroke-opacity:1" />
  </g>
  <g
     id="g64"
     style="fill:none;stroke:#ffffff;stroke-opacity:1">
    <path
       fill="none"
       stroke="#000000"
       stroke-width="6"
       stroke-linecap="round"
       stroke-linejoin="round"
       d="M-303.14 660.259 L-304.296 663.525 L-310.598 676.122 L-321.125 691.382 L-326.326 700.714 L-331.638 712.04 L-338.968 730.076 L-342.349 737.272 L-344.188 740.157 L-346.531 742.482 L-349.474 744.059 L-352.528 744.925 "
       id="path64"
       style="fill:none;stroke:#ffffff;stroke-opacity:1" />
  </g>
  <g
     id="g65"
     style="fill:none;stroke:#ffffff;stroke-opacity:1">
    <path
       fill="none"
       stroke="#000000"
       stroke-width="6"
       stroke-linecap="round"
       stroke-linejoin="round"
       d="M364.708 1071.06 L364.635 1070.96 "
       id="path65"
       style="fill:none;stroke:#ffffff;stroke-opacity:1" />
  </g>
  <g
     id="g66"
     style="fill:none;stroke:#ffffff;stroke-opacity:1">
    <path
       fill="none"
       stroke="#000000"
       stroke-width="6"
       stroke-linecap="round"
       stroke-linejoin="round"
       d="M303.014 1032.21 L306.661 1033.25 L314.872 1035.25 L326.347 1039.56 L331.37 1041.94 L334.588 1043.89 L337.698 1046.36 L352.308 1060.22 L357.159 1063.82 L363.74 1067.81 L369.982 1070.74 L382.054 1075.39 L392.259 1078.44 L403.363 1081.19 L405.456 1082.12 "
       id="path66"
       style="fill:none;stroke:#ffffff;stroke-opacity:1" />
  </g>
  <g
     id="g67"
     style="fill:none;stroke:#ffffff;stroke-opacity:1">
    <path
       fill="none"
       stroke="#000000"
       stroke-width="6"
       stroke-linecap="round"
       stroke-linejoin="round"
       d="M574.993 998.856 L578.245 996.769 L586.458 990.819 L590.854 987.231 L602.545 975.127 L608.349 970.698 L616.734 963.563 L626.63 954.362 L630.433 949.774 L634.76 943.367 L638.036 939.841 L638.073 939.793 "
       id="path67"
       style="fill:none;stroke:#ffffff;stroke-opacity:1" />
  </g>
  <g
     id="g68"
     style="fill:none;stroke:#ffffff;stroke-opacity:1">
    <path
       fill="none"
       stroke="#000000"
       stroke-width="6"
       stroke-linecap="round"
       stroke-linejoin="round"
       d="M464.964 1272.25 L464.884 1276.52 L465.834 1278.84 L466.522 1278.27 L467.446 1275.73 L467.383 1275.12 L466.812 1275.54 L465.979 1276.96 L465.873 1278.24 L466.223 1278.33 L470.064 1276.43 L469.048 1275.56 "
       id="path68"
       style="fill:none;stroke:#ffffff;stroke-opacity:1" />
  </g>
  <g
     id="g69"
     style="fill:none;stroke:#ffffff;stroke-opacity:1">
    <path
       fill="none"
       stroke="#000000"
       stroke-width="6"
       stroke-linecap="round"
       stroke-linejoin="round"
       d="M475.048 1345.86 L475.254 1341.75 L474.826 1340.67 L473.664 1341.09 L471.864 1342.91 L471.043 1344.35 L470.791 1346.8 L472.181 1346.16 L473.586 1344.77 L474.948 1342.89 L475.03 1342.56 L474.599 1342.51 L472.43 1344.9 L471.428 1346.8 L471.365 1347.77 L471.713 1348.35 L472.257 1348.45 L474.341 1347.16 L474.871 1346.19 L475.352 1344.16 L474.445 1337.94 L471.901 1347.05 L472.249 1348.8 L472.752 1349.06 "
       id="path69"
       style="fill:none;stroke:#ffffff;stroke-opacity:1" />
  </g>
  <g
     id="g70"
     style="fill:none;stroke:#ffffff;stroke-opacity:1">
    <path
       fill="none"
       stroke="#000000"
       stroke-width="6"
       stroke-linecap="round"
       stroke-linejoin="round"
       d="M464.114 1274.72 L466.521 1277.96 L468.169 1283.31 L468.75 1287.2 L469.41 1298.81 L471.403 1311.3 L473.064 1325.15 L477.295 1341.15 L478.136 1347.61 L478.188 1350.87 L478.001 1356.35 L477.183 1360.68 L477.109 1362.89 L477.259 1359.08 "
       id="path70"
       style="fill:none;stroke:#ffffff;stroke-opacity:1" />
  </g>
  <g
     id="g71"
     style="fill:none;stroke:#ffffff;stroke-opacity:1">
    <path
       fill="none"
       stroke="#000000"
       stroke-width="6"
       stroke-linecap="round"
       stroke-linejoin="round"
       d="M466.246 1343.98 L470.202 1346.3 L476.056 1352.49 L479.537 1357.45 L484.027 1365.43 L490.283 1375.24 L497.439 1381.65 L501.822 1384.61 L502.933 1384.68 "
       id="path71"
       style="fill:none;stroke:#ffffff;stroke-opacity:1" />
  </g>
  <g
     id="g72"
     style="fill:none;stroke:#ffffff;stroke-opacity:1">
    <path
       fill="none"
       stroke="#000000"
       stroke-width="6"
       stroke-linecap="round"
       stroke-linejoin="round"
       d="M485.979 1373.47 L489.572 1377.05 L492.382 1378.17 L493.037 1381.19 L495.597 1383.93 L505.471 1390.64 L507.389 1392.64 L508.28 1394.62 L512.327 1399.03 L516.179 1403.89 L516.779 1404.2 L516.99 1403.72 "
       id="path72"
       style="fill:none;stroke:#ffffff;stroke-opacity:1" />
  </g>
  <g
     id="g73"
     style="fill:none;stroke:#ffffff;stroke-opacity:1">
    <path
       fill="none"
       stroke="#000000"
       stroke-width="6"
       stroke-linecap="round"
       stroke-linejoin="round"
       d="M478.611 1358.22 L481.043 1363.01 L486.784 1372.29 L494.228 1378.78 L509.603 1391.21 "
       id="path73"
       style="fill:none;stroke:#ffffff;stroke-opacity:1" />
  </g>
  <g
     id="g74"
     style="fill:none;stroke:#ffffff;stroke-opacity:1">
    <path
       fill="none"
       stroke="#000000"
       stroke-width="6"
       stroke-linecap="round"
       stroke-linejoin="round"
       d="M474.756 1267.39 L472.037 1271.81 L469.516 1277.92 L469.844 1277.04 L469.792 1275.73 L468.504 1273.75 L460.153 1265.59 L456.23 1262.29 L449.511 1255.3 L445.453 1251.84 L442.107 1249.66 L438.663 1248.05 "
       id="path74"
       style="fill:none;stroke:#ffffff;stroke-opacity:1" />
  </g>
  <g
     id="g75"
     style="fill:none;stroke:#ffffff;stroke-opacity:1">
    <path
       fill="none"
       stroke="#000000"
       stroke-width="6"
       stroke-linecap="round"
       stroke-linejoin="round"
       d="M282.792 1363.24 L281.617 1363.99 L278.83 1366.92 L279.957 1367.24 L282.188 1366.62 L282.504 1365.55 L282.28 1364.29 L282.155 1364.81 L280.934 1365.77 L281.045 1366.24 "
       id="path75"
       style="fill:none;stroke:#ffffff;stroke-opacity:1" />
  </g>
  <g
     id="g76"
     style="fill:none;stroke:#ffffff;stroke-opacity:1">
    <path
       fill="none"
       stroke="#000000"
       stroke-width="6"
       stroke-linecap="round"
       stroke-linejoin="round"
       d="M284.209 1361.81 L282.093 1362.67 L284.264 1361.27 "
       id="path76"
       style="fill:none;stroke:#ffffff;stroke-opacity:1" />
  </g>
  <g
     id="g77"
     style="fill:none;stroke:#ffffff;stroke-opacity:1">
    <path
       fill="none"
       stroke="#000000"
       stroke-width="6"
       stroke-linecap="round"
       stroke-linejoin="round"
       d="M271.025 1372.37 L271.1 1372.6 L273.46 1370.45 L274.462 1368.96 L272.183 1370.89 L273.147 1371.2 L275.179 1371.18 "
       id="path77"
       style="fill:none;stroke:#ffffff;stroke-opacity:1" />
  </g>
  <g
     id="g78"
     style="fill:none;stroke:#ffffff;stroke-opacity:1">
    <path
       fill="none"
       stroke="#000000"
       stroke-width="6"
       stroke-linecap="round"
       stroke-linejoin="round"
       d="M277.765 1371.06 L277.771 1371.06 "
       id="path78"
       style="fill:none;stroke:#ffffff;stroke-opacity:1" />
  </g>
  <g
     id="g79"
     style="fill:none;stroke:#ffffff;stroke-opacity:1">
    <path
       fill="none"
       stroke="#000000"
       stroke-width="6"
       stroke-linecap="round"
       stroke-linejoin="round"
       d="M278.258 1368.85 L279.241 1373.76 L279.39 1378.03 L278.456 1389.78 L277.598 1418.9 L277.04 1423.87 L275.908 1428.53 L275.133 1433.73 L272.454 1442.8 L270.739 1447.46 L270.869 1447.85 L272.043 1445.62 L274.854 1438.66 L277.468 1429.21 "
       id="path79"
       style="fill:none;stroke:#ffffff;stroke-opacity:1" />
  </g>
  <g
     id="g80"
     style="fill:none;stroke:#ffffff;stroke-opacity:1">
    <path
       fill="none"
       stroke="#000000"
       stroke-width="6"
       stroke-linecap="round"
       stroke-linejoin="round"
       d="M210.889 1472.58 L210.939 1473.08 L212.028 1473.5 L216.797 1473.96 L223.196 1473.6 L226.844 1472.77 L249.469 1464.23 L273.429 1456.85 L283.54 1453.35 L293.152 1449.45 L297.57 1447.18 L303.707 1443.01 L310.85 1437.16 L314.407 1434.7 "
       id="path80"
       style="fill:none;stroke:#ffffff;stroke-opacity:1" />
  </g>
  <g
     id="g81"
     style="fill:none;stroke:#ffffff;stroke-opacity:1">
    <path
       fill="none"
       stroke="#000000"
       stroke-width="6"
       stroke-linecap="round"
       stroke-linejoin="round"
       d="M-368.833 1080 L-368.655 1081.16 L-367.176 1083.38 L-360.339 1091.6 L-354.587 1097.8 L-349.339 1105.16 L-345.794 1111.09 L-345.233 1112.21 "
       id="path81"
       style="fill:none;stroke:#ffffff;stroke-opacity:1" />
  </g>
  <g
     id="g82"
     style="fill:none;stroke:#ffffff;stroke-opacity:1">
    <path
       fill="none"
       stroke="#000000"
       stroke-width="6"
       stroke-linecap="round"
       stroke-linejoin="round"
       d="M-316.664 1156.37 L-304.248 1171.14 L-296.641 1179.1 L-293.612 1181 L-292.765 1181.01 L-292.415 1180.65 L-293.236 1178.39 L-296.564 1171.69 "
       id="path82"
       style="fill:none;stroke:#ffffff;stroke-opacity:1" />
  </g>
  <g
     id="g83"
     style="fill:none;stroke:#ffffff;stroke-opacity:1">
    <path
       fill="none"
       stroke="#000000"
       stroke-width="6"
       stroke-linecap="round"
       stroke-linejoin="round"
       d="M-374.67 1075.13 L-365.089 1079.8 L-363.729 1081.97 L-355.032 1092.3 L-352.819 1094.32 L-346.332 1098.53 L-343.837 1100.94 L-342.629 1103.13 L-339.919 1110.9 L-336.57 1119.14 L-331.303 1129.03 L-328.487 1133.08 L-324.809 1137.57 L-317.811 1144.16 L-310.68 1151.55 L-309.261 1153.62 L-307.316 1158.12 L-305.266 1159.47 L-300.107 1165.1 L-298.182 1168.18 L-296.838 1171.35 L-294.599 1173.61 L-291.894 1175.73 L-286.46 1181.33 L-285.224 1184.37 L-284.342 1185.51 L-278.875 1190.55 L-277.412 1191.43 L-276.02 1193.11 L-274.624 1193.77 L-273.012 1195.11 L-266.872 1201.32 L-265.889 1202.67 L-264.076 1206.66 L-263.33 1207.67 L-259.899 1209.75 L-257.156 1212.01 L-256.178 1213.66 L-253.688 1216.64 L-252.1 1217.64 L-250.235 1219.63 L-247.029 1222.19 L-241.798 1225.57 L-236.934 1227.98 L-236.13 1227.98 L-234.499 1228.8 L-227.915 1234.17 L-225.208 1237.2 L-222.713 1238.38 L-220.023 1241 L-216.166 1243.87 L-212.596 1245.6 L-209.488 1248.18 L-200.873 1254.09 L-197.566 1255.65 L-194.18 1259.46 L-195.007 1256.2 L-196.848 1252.8 L-200.456 1248.53 L-205.697 1244.41 "
       id="path83"
       style="fill:none;stroke:#ffffff;stroke-opacity:1" />
  </g>
  <g
     id="g84"
     style="fill:none;stroke:#ffffff;stroke-opacity:1">
    <path
       fill="none"
       stroke="#000000"
       stroke-width="6"
       stroke-linecap="round"
       stroke-linejoin="round"
       d="M-229.291 1234.66 L-223.713 1243.73 L-220.291 1248.23 L-219.09 1249.22 L-218.113 1249.72 L-211.989 1250.88 L-200.044 1256.44 L-192.959 1260.64 L-191.328 1262.07 L-190.154 1264.06 L-189.078 1264.59 L-187.993 1264.77 L-185.421 1264.49 L-183.856 1263.77 L-183.417 1263.25 "
       id="path84"
       style="fill:none;stroke:#ffffff;stroke-opacity:1" />
  </g>
  <g
     id="g85"
     style="fill:none;stroke:#ffffff;stroke-opacity:1">
    <path
       fill="none"
       stroke="#000000"
       stroke-width="6"
       stroke-linecap="round"
       stroke-linejoin="round"
       d="M-202.302 1244.76 L-196.902 1247.99 L-195.727 1249.31 L-194.133 1252.09 L-192.078 1258.02 L-186.79 1261.34 L-185.104 1259.53 L-183.868 1259.52 L-182.963 1260.28 L-181.892 1262.58 "
       id="path85"
       style="fill:none;stroke:#ffffff;stroke-opacity:1" />
  </g>
  <g
     id="g86"
     style="fill:none;stroke:#ffffff;stroke-opacity:1">
    <path
       fill="none"
       stroke="#000000"
       stroke-width="6"
       stroke-linecap="round"
       stroke-linejoin="round"
       d="M-176.942 1261.94 L-177.203 1263.25 L-179.868 1259.57 L-180.597 1257.6 L-180.885 1255.36 "
       id="path86"
       style="fill:none;stroke:#ffffff;stroke-opacity:1" />
  </g>
  <g
     id="g87"
     style="fill:none;stroke:#ffffff;stroke-opacity:1">
    <path
       fill="none"
       stroke="#000000"
       stroke-width="6"
       stroke-linecap="round"
       stroke-linejoin="round"
       d="M-179.352 1258.59 L-179.363 1260.35 L-179.052 1260.41 L-179.01 1260.36 "
       id="path87"
       style="fill:none;stroke:#ffffff;stroke-opacity:1" />
  </g>
  <g
     id="g88"
     style="fill:none;stroke:#ffffff;stroke-opacity:1">
    <path
       fill="none"
       stroke="#000000"
       stroke-width="6"
       stroke-linecap="round"
       stroke-linejoin="round"
       d="M-164.675 1222.66 L-161.465 1214.38 L-161.19 1214.3 L-161.081 1214.66 L-159.936 1215.28 L-159.842 1216.96 L-162.445 1224.8 L-163.781 1227.83 L-167.469 1239.71 L-169.113 1251.17 L-171.381 1260.76 L-171.101 1263.25 L-172.186 1269.92 L-171.995 1272.58 L-172.927 1274.68 L-172.802 1276.88 L-173.46 1276.1 L-174.362 1274.02 "
       id="path88"
       style="fill:none;stroke:#ffffff;stroke-opacity:1" />
  </g>
  <g
     id="g89"
     style="fill:none;stroke:#ffffff;stroke-opacity:1">
    <path
       fill="none"
       stroke="#000000"
       stroke-width="6"
       stroke-linecap="round"
       stroke-linejoin="round"
       d="M-176.707 1263.77 L-176.518 1265.63 L-174.805 1271.9 L-174.582 1275.01 L-174.767 1276.09 L-175.603 1277.49 L-176.506 1280.91 L-177.261 1287.83 L-177.308 1298.2 L-176.776 1301.37 L-176.959 1300.38 L-178.505 1297.24 L-173.052 1296.22 L-172.201 1295.51 L-172.556 1294.61 L-175.029 1291.69 L-176.388 1288.64 "
       id="path89"
       style="fill:none;stroke:#ffffff;stroke-opacity:1" />
  </g>
  <g
     id="g90"
     style="fill:none;stroke:#ffffff;stroke-opacity:1">
    <path
       fill="none"
       stroke="#000000"
       stroke-width="6"
       stroke-linecap="round"
       stroke-linejoin="round"
       d="M-177.382 1303.07 L-177.662 1303.19 L-177.063 1303.69 L-174.088 1305.36 L-171.565 1307.34 L-169.586 1308.06 L-171.523 1306.95 "
       id="path90"
       style="fill:none;stroke:#ffffff;stroke-opacity:1" />
  </g>
  <g
     id="g91"
     style="fill:none;stroke:#ffffff;stroke-opacity:1">
    <path
       fill="none"
       stroke="#000000"
       stroke-width="6"
       stroke-linecap="round"
       stroke-linejoin="round"
       d="M-177.272 1277.35 L-177.137 1284.14 L-176.672 1287.55 L-173.793 1296.22 L-173.255 1297.44 L-169.282 1302.43 L-168.445 1303.98 L-164.343 1307.78 L-162.326 1309.07 L-161.656 1309.19 L-160.318 1313.49 L-160.231 1319.52 L-159.433 1323.05 L-159.109 1323.05 L-158.576 1322.08 L-157.322 1319.12 L-156.423 1314.5 L-156.488 1311.82 L-157.713 1308.33 "
       id="path91"
       style="fill:none;stroke:#ffffff;stroke-opacity:1" />
  </g>
  <g
     id="g92"
     style="fill:none;stroke:#ffffff;stroke-opacity:1">
    <path
       fill="none"
       stroke="#000000"
       stroke-width="6"
       stroke-linecap="round"
       stroke-linejoin="round"
       d="M-170.388 1305.23 L-32.3882 1383.23 "
       id="path92"
       style="fill:none;stroke:#ffffff;stroke-opacity:1" />
  </g>
  <g
     id="g93"
     style="fill:none;stroke:#ffffff;stroke-opacity:1">
    <path
       fill="none"
       stroke="#000000"
       stroke-width="6"
       stroke-linecap="round"
       stroke-linejoin="round"
       d="M-160.741 1304.51 L-150.967 1307.5 L-141.389 1314.32 L-133.301 1318.13 L-128.055 1321.07 L-117.996 1328.32 L-114.683 1330.07 L-110.745 1331.11 L-106.947 1332.9 L-101.838 1334.78 L-98.04 1336.65 L-88.8723 1342.13 L-84.5276 1343.39 L-81.0492 1345.46 L-72.9242 1351.36 L-69.529 1354.71 L-62.0381 1363.64 L-60.8041 1364.67 L-59.4994 1365.01 L-55.2571 1367.16 L-51.4061 1370.22 L-47.4692 1372.26 L-45.8488 1373.82 L-44.9728 1375.39 L-42.4065 1378.44 L-37.8337 1382.37 L-32.9579 1390.89 L-31.3848 1392.32 L-28.9578 1396.8 L-23.6499 1401.98 L-22.9289 1403.65 L-21.4019 1405.76 L-18.2472 1408.64 L-15.4043 1410.58 L-13.9497 1412.6 L-14.2018 1413.3 L-13.9551 1414.05 L-10.0237 1418.01 L-8.02879 1420.66 L-4.34911 1429.55 L-3.08879 1431.41 "
       id="path93"
       style="fill:none;stroke:#ffffff;stroke-opacity:1" />
  </g>
  <g
     id="g94"
     style="fill:none;stroke:#ffffff;stroke-opacity:1">
    <path
       fill="none"
       stroke="#000000"
       stroke-width="6"
       stroke-linecap="round"
       stroke-linejoin="round"
       d="M-15.4275 1422.18 L-12.7482 1424.66 L-9.93889 1426.77 L-7.72862 1429.69 L-2.3701 1433.68 L3.96187 1439.92 L9.17256 1442.56 L15.5836 1444.95 L21.5571 1445.34 L27.8145 1448.08 L30.7115 1450.2 L34.923 1451.83 L41.7783 1455.22 L54.2784 1462.38 L56.1268 1463.96 L56.2642 1465.06 "
       id="path94"
       style="fill:none;stroke:#ffffff;stroke-opacity:1" />
  </g>
  <g
     id="g95"
     style="fill:none;stroke:#ffffff;stroke-opacity:1">
    <path
       fill="none"
       stroke="#000000"
       stroke-width="6"
       stroke-linecap="round"
       stroke-linejoin="round"
       d="M646.457 945.089 L646.087 945.125 L644.436 940.713 L644.416 939.155 L643.644 936.211 L641.693 932.446 L640.986 927.564 L639.091 925.196 L638.698 923.986 L638.883 914.829 L637.339 911.683 L636.88 908.972 L636.986 904.113 L637.571 900.461 L636.72 894.847 L636.893 888.599 L639.113 879.237 L639.843 877.823 L640.046 876.598 "
       id="path95"
       style="fill:none;stroke:#ffffff;stroke-opacity:1" />
  </g>
  <g
     id="g96"
     style="fill:none;stroke:#ffffff;stroke-opacity:1">
    <path
       fill="none"
       stroke="#000000"
       stroke-width="6"
       stroke-linecap="round"
       stroke-linejoin="round"
       d="M639.022 873.335 L638.661 871.185 L636.856 866.333 L636.209 861.773 L632.606 852.549 L631.376 838.872 L629.306 830.493 L627.334 826.872 L624.256 822.958 L622.134 818.939 L620.267 811.699 L617.894 805.433 L612.756 797.285 L610.296 791.859 L603.997 782.621 L599.888 772.77 L598.291 767.897 L594.379 760.629 L592.942 758.935 L587.995 755.092 L585.962 752.867 L582.283 747.857 L574.172 740.12 L566.628 729.421 L562.863 722.873 L558.366 717.823 L554.505 712.866 L547.266 705.613 L543.362 702.922 L539.116 698.558 L535.046 693.415 L529.472 687.705 L526.668 683.855 L513.128 675.517 L491.113 659.626 L485.801 655.38 L481.849 652.849 L478.366 651.064 L475.474 649.929 L465.384 647.214 L455.373 643.6 L453.166 643.042 L443.044 641.907 L423.403 636.436 L420.211 634.805 L415.807 631.694 L411.576 627.643 L390.012 615.504 L382.73 609.05 L372.868 601.251 L367.2 594.861 L360.125 588.009 L353.474 580.295 L340.206 569.892 L333.528 562.723 L330.519 558.916 L326.197 555.128 L318.932 551.04 L309.504 542.434 L306.416 540.564 L295.522 536.676 L289.118 532.944 L283.269 530.995 L273.429 526.89 L266.243 521.197 L262.296 518.727 L255.802 516.846 L252.239 515.346 L242.794 510.421 L234.075 505.089 L229.625 502.997 L216.665 499.636 L212.194 497.963 L207.541 495.714 L196.237 489.278 L190.82 486.967 L187.78 486.174 L184.253 484.792 L172.385 478.534 L163.091 474.489 L156.772 473.029 L149.926 470.794 L139.605 465.452 L134.96 464.058 L126.42 462.757 L111.683 459.425 L86.92 455.062 L82.751 454.91 L69.8473 456.184 L47.513 455.215 L43.2222 455.759 L29.1926 458.923 L24.6306 459.658 L-1.97166 460.712 L-11.5524 461.87 L-23.6301 464.436 "
       id="path96"
       style="fill:none;stroke:#ffffff;stroke-opacity:1" />
  </g>
  <g
     id="g97"
     style="fill:none;stroke:#ffffff;stroke-opacity:1">
    <path
       fill="none"
       stroke="#000000"
       stroke-width="6"
       stroke-linecap="round"
       stroke-linejoin="round"
       d="M-28.7072 464.555 L-33.7024 470.593 L-32.1999 468.259 "
       id="path97"
       style="fill:none;stroke:#ffffff;stroke-opacity:1" />
  </g>
  <g
     id="g98"
     style="fill:none;stroke:#ffffff;stroke-opacity:1">
    <path
       fill="none"
       stroke="#000000"
       stroke-width="6"
       stroke-linecap="round"
       stroke-linejoin="round"
       d="M-405.123 929.286 L-405.112 929.229 "
       id="path98"
       style="fill:none;stroke:#ffffff;stroke-opacity:1" />
  </g>
  <g
     id="g99"
     style="fill:none;stroke:#ffffff;stroke-opacity:1">
    <path
       fill="none"
       stroke="#000000"
       stroke-width="6"
       stroke-linecap="round"
       stroke-linejoin="round"
       d="M-32.2598 467.529 L-35.429 467.729 L-38.211 468.522 L-40.7726 470.222 L-43.6592 472.8 L-46.0076 474.265 L-49.8475 475.899 L-59.3069 478.987 L-62.9631 480.592 L-67.8249 483.286 L-80.5835 492.414 L-88.1778 496.534 L-95.0994 499.793 L-109.809 505.176 L-112.494 506.646 L-115.556 509.561 L-122.85 514.068 L-142.034 521.267 L-148.157 524.831 L-175.463 542.61 L-182.521 548.326 L-197.678 562.023 L-205.246 567.495 L-215.882 576.511 L-222.136 582.476 L-226.111 586.77 L-230.142 590.306 L-246.856 602.496 L-249.883 605.108 L-255.394 611.773 L-257.801 615.361 L-262.104 623.046 L-265.462 628.023 L-267.76 630.848 L-272.223 634.844 L-282.498 641.504 L-284.736 643.455 L-287.952 646.89 L-291.604 651.86 L-295.773 658.353 L-300.724 667.33 L-306.77 676.974 L-307.866 678.883 "
       id="path99"
       style="fill:none;stroke:#ffffff;stroke-opacity:1" />
  </g>
  <g
     id="g100"
     style="fill:none;stroke:#ffffff;stroke-opacity:1">
    <path
       fill="none"
       stroke="#000000"
       stroke-width="6"
       stroke-linecap="round"
       stroke-linejoin="round"
       d="M-328.004 712.068 L-330.47 715.696 L-333.112 720.933 L-337.717 731.944 L-343.556 742.677 L-361.65 771.817 L-367.684 782.482 L-371.649 792.174 L-375.47 808.623 L-381.808 825.994 L-386.116 839.245 L-388.073 847.185 L-390.168 859.23 L-391.503 878.299 L-392.176 893.925 L-394.277 908.214 L-396.441 931.888 L-397.401 933.798 L-398.562 944.156 L-398.57 960.303 L-398.316 965.588 L-397.77 969.353 L-398.028 970.752 L-396.598 973.221 L-395.177 979.937 L-393.722 995.905 "
       id="path100"
       style="fill:none;stroke:#ffffff;stroke-opacity:1" />
  </g>
  <g
     id="g101"
     style="fill:none;stroke:#ffffff;stroke-opacity:1">
    <path
       fill="none"
       stroke="#000000"
       stroke-width="6"
       stroke-linecap="round"
       stroke-linejoin="round"
       d="M149.887 467.304 L150.065 467.721 L156.282 466.551 L156.727 467.125 L156.501 468.171 L154.287 471.857 L154.229 474.286 L155.263 475.505 L157.381 476.893 L157.958 477.811 L158.815 480.697 L159.394 484.717 L160.497 487.257 L160.733 492.992 L161.222 495.581 L161.782 496.777 L163.692 498.511 L165.339 502.057 L165.264 507.267 L165.622 509.302 L168.471 514.469 L170.22 518.364 L170.581 521.92 L171.698 524.518 L173.03 526.737 L175.585 529.254 L177.629 534.253 L178.189 536.967 L178.578 537.818 "
       id="path101"
       style="fill:none;stroke:#ffffff;stroke-opacity:1" />
  </g>
  <g
     id="g102"
     style="fill:none;stroke:#ffffff;stroke-opacity:1">
    <path
       fill="none"
       stroke="#000000"
       stroke-width="6"
       stroke-linecap="round"
       stroke-linejoin="round"
       d="M148.18 741.887 L148.449 749.528 L149.052 752.327 L150.761 755.194 L150.161 755.792 "
       id="path102"
       style="fill:none;stroke:#ffffff;stroke-opacity:1" />
  </g>
  <g
     id="g103"
     style="fill:none;stroke:#ffffff;stroke-opacity:1">
    <path
       fill="none"
       stroke="#000000"
       stroke-width="6"
       stroke-linecap="round"
       stroke-linejoin="round"
       d="M151.091 763.11 L151.01 763.019 "
       id="path103"
       style="fill:none;stroke:#ffffff;stroke-opacity:1" />
  </g>
  <g
     id="g104"
     style="fill:none;stroke:#ffffff;stroke-opacity:1">
    <path
       fill="none"
       stroke="#000000"
       stroke-width="6"
       stroke-linecap="round"
       stroke-linejoin="round"
       d="M151.473 758.711 L149.395 767.522 L147.742 769.17 L143.554 771.668 L137.598 776.964 L133.516 778.704 L124.05 781.321 L117.894 783.902 L114.24 786.09 L107.273 791.538 L102.798 794.497 L94.5184 798.446 L86.2364 801.787 L81.4296 804.206 L75.6113 808.72 L74.9194 809.414 "
       id="path104"
       style="fill:none;stroke:#ffffff;stroke-opacity:1" />
  </g>
  <g
     id="g105"
     style="fill:none;stroke:#ffffff;stroke-opacity:1">
    <path
       fill="none"
       stroke="#000000"
       stroke-width="6"
       stroke-linecap="round"
       stroke-linejoin="round"
       d="M-293.764 655.567 L-293.738 655.568 "
       id="path105"
       style="fill:none;stroke:#ffffff;stroke-opacity:1" />
  </g>
  <g
     id="g106"
     style="fill:none;stroke:#ffffff;stroke-opacity:1">
    <path
       fill="none"
       stroke="#000000"
       stroke-width="6"
       stroke-linecap="round"
       stroke-linejoin="round"
       d="M-292.189 650.507 L-290.44 657.236 L-290.605 658.245 L-291.341 659.15 L-291.553 660.027 L-291.105 669.208 L-289.752 673.982 L-289.484 677.864 "
       id="path106"
       style="fill:none;stroke:#ffffff;stroke-opacity:1" />
  </g>
</g>
</svg>
